<?xml version="1.0" encoding="UTF-8"?>
<!-- Generated by Pixelmator Pro 3.7.1 -->
<svg width="513" height="446" viewBox="0 0 513 446" xmlns="http://www.w3.org/2000/svg">
    <path id="Shape" fill="#ffffff" fill-rule="evenodd" stroke="none" d="M 50.188934 90.037445 C 39.391727 71.249237 32.643288 59.56073 28.2264 51.941528 C 23.809534 44.322357 15.858654 30.658356 10.557794 21.577179 C 5.256933 12.495941 0.621351 3.924347 0.256507 2.529236 C -0.383533 0.081696 5.010801 -0.006317 153.869965 0.022949 L 308.14679 0.053192 L 317.233368 16.300262 C 322.231018 25.236115 333.423065 44.859192 342.104645 59.907043 C 350.786224 74.954895 358.232574 87.266815 358.6521 87.266815 C 359.071594 87.266815 365.022675 77.491943 371.876709 65.544922 C 378.730743 53.597839 387.523163 38.168976 391.415436 31.258606 C 395.307739 24.348206 400.970459 14.642212 403.999298 9.689728 L 409.506256 0.685242 L 461.158875 0.321899 C 511.49939 -0.032288 512.793701 0.026062 512.116028 2.617584 C 511.733582 4.080109 507.068085 12.659363 501.748291 21.682617 C 496.428528 30.70578 488.470276 44.322357 484.063507 51.941528 C 479.656647 59.56073 472.486267 72.092896 468.129272 79.790802 C 463.772308 87.488739 456.762909 99.644775 452.552948 106.80426 C 448.342926 113.963776 440.08606 128.237244 434.204437 138.523132 C 428.322723 148.809021 418.977997 165.01709 413.438385 174.541077 C 407.898682 184.065063 397.608978 201.831604 390.572449 214.022278 C 383.535889 226.212952 373.263672 243.979507 367.745331 253.503479 C 362.226959 263.027466 352.958252 279.084839 347.148193 289.186554 C 341.338135 299.288269 331.909027 315.657349 326.194641 325.562286 C 320.480255 335.467224 311.217712 351.514313 305.611237 361.222443 C 300.00473 370.930603 291.112732 386.262146 285.851166 395.292603 C 280.589661 404.322998 274.102875 415.577515 271.436188 420.302582 C 268.769501 425.027679 264.417725 432.756287 261.765594 437.477295 C 259.113525 442.198303 256.619965 446.043518 256.224365 446.022186 C 255.828842 446.000854 252.438629 440.546204 248.690643 433.900757 C 244.942642 427.25531 236.298477 412.155579 229.481354 400.345856 C 222.664246 388.536133 212.558975 371.081299 207.025269 361.557312 C 201.491531 352.033325 192.204605 335.986267 186.387573 325.897156 C 180.570587 315.808044 171.05751 299.288269 165.247452 289.186554 C 159.437408 279.084839 150.169708 263.027466 144.652542 253.503479 C 139.135406 243.979507 129.366653 227.148056 122.944191 216.100235 C 116.521721 205.052414 109.163513 192.169815 106.592529 187.472198 C 101.918098 178.931122 101.918098 178.931122 106.375778 170.567657 C 108.827499 165.967773 115.955559 153.483704 122.215858 142.825287 C 128.476196 132.166809 137.650299 116.479156 142.602783 107.963715 C 147.555267 99.448334 151.815048 91.931335 152.069046 91.259308 C 152.330521 90.567413 130.335846 90.037445 101.359879 90.037445 L 50.188934 90.037445 Z M 357.528473 90.037445 L 155.04686 90.037445 L 159.499588 98.00293 C 161.948563 102.383972 169.197235 115.007568 175.607651 126.055389 C 182.018082 137.10321 191.777023 153.934662 197.294144 163.458618 C 202.81131 172.982605 212.160645 189.190704 218.07048 199.476578 C 223.980301 209.762451 232.095459 223.788666 236.104172 230.64595 C 240.112885 237.50322 246.083588 247.944931 249.372421 253.849808 C 252.661255 259.7547 255.799973 264.585938 256.347321 264.585938 C 256.894623 264.585938 259.790802 260.066345 262.783234 254.542465 C 265.775635 249.01857 271.348389 239.200195 275.167145 232.723907 C 278.98587 226.24762 286.651215 213.156464 292.201233 203.632492 C 297.751251 194.108521 304.933716 181.640778 308.162292 175.926392 C 311.3909 170.212006 317.957733 158.679321 322.75531 150.298218 C 327.552856 141.917145 335.307373 128.514282 339.987518 120.51416 C 344.667633 112.514038 350.528992 102.383972 353.012665 98.00293 L 357.528473 90.037445 Z"/>
</svg>
